# xmcd
#
# Track frame offsets: 
#        150
#        17102
#        40042
#        55342
#        77842
#        97812
#        116945
#        140837
#        152307
#
# Disc length: 2211 seconds
#
# Revision: 0
# Processed by: cddbd v1.4PL0 Copyright (c) Steve Scherf et al.
# Submitted via: ExactAudioCopy v0.90b4
#
DISCID=6d08a109
DTITLE=JAF - Nro 7
DYEAR=1997
DGENRE=Blues
TTITLE0=En tan solo un instante
TTITLE1=A las dos en la catedral
TTITLE2=Aquel viejo amor
TTITLE3=Mi banda de blues
TTITLE4=El perdido amor
TTITLE5=Mi blues
TTITLE6=Historia de verano
TTITLE7=Ocupa tu lugar
TTITLE8=Dame más
EXTD=
EXTT0=
EXTT1=
EXTT2=
EXTT3=
EXTT4=
EXTT5=
EXTT6=
EXTT7=
EXTT8=
PLAYORDER=
